<svg width="32" height="33" viewBox="0 0 32 33" fill="none" xmlns="http://www.w3.org/2000/svg">
<g id="EnvelopeOpen">
<path id="Vector" d="M28.555 11.8293L16.555 3.82928C16.3907 3.71964 16.1975 3.66113 16 3.66113C15.8025 3.66113 15.6093 3.71964 15.445 3.82928L3.445 11.8293C3.30801 11.9207 3.19572 12.0445 3.11809 12.1897C3.04046 12.335 2.99989 12.4971 3 12.6618V25.6618C3 26.1922 3.21071 26.7009 3.58579 27.076C3.96086 27.4511 4.46957 27.6618 5 27.6618H27C27.5304 27.6618 28.0391 27.4511 28.4142 27.076C28.7893 26.7009 29 26.1922 29 25.6618V12.6618C29.0001 12.4971 28.9595 12.335 28.8819 12.1897C28.8043 12.0445 28.692 11.9207 28.555 11.8293ZM12.09 19.6618L5 24.6618V14.603L12.09 19.6618ZM14.1362 20.6618H17.8638L24.9425 25.6618H7.0575L14.1362 20.6618ZM19.91 19.6618L27 14.603V24.6618L19.91 19.6618ZM16 5.86303L26.2388 12.6893L17.8638 18.6618H14.1388L5.76375 12.6893L16 5.86303Z" fill="white"/>
</g>
</svg>
