<svg width="32" height="33" viewBox="0 0 32 33" fill="none" xmlns="http://www.w3.org/2000/svg">
<g id="Phone" clip-path="url(#clip0_15_68)">
<path id="Vector" d="M20.5488 18.8291C20.6872 18.7369 20.8465 18.6808 21.0122 18.6657C21.1779 18.6507 21.3447 18.6772 21.4975 18.7428L27.3925 21.3841C27.5912 21.469 27.757 21.616 27.8651 21.803C27.9733 21.99 28.018 22.2071 27.9925 22.4216C27.7983 23.8729 27.0836 25.2043 25.9813 26.1681C24.8791 27.132 23.4642 27.6627 22 27.6616C17.4913 27.6616 13.1673 25.8705 9.97919 22.6824C6.79107 19.4943 5 15.1703 5 10.6616C4.99888 9.19735 5.5296 7.78253 6.49345 6.68026C7.45731 5.57799 8.78869 4.8633 10.24 4.66909C10.4545 4.64361 10.6716 4.68829 10.8586 4.79645C11.0456 4.90461 11.1926 5.07043 11.2775 5.26909L13.9188 11.1691C13.9836 11.3206 14.0101 11.4859 13.9957 11.6501C13.9813 11.8143 13.9265 11.9724 13.8363 12.1103L11.165 15.2866C11.0702 15.4296 11.0142 15.5947 11.0024 15.7658C10.9906 15.9369 11.0233 16.1082 11.0975 16.2628C12.1313 18.3791 14.3188 20.5403 16.4413 21.5641C16.5967 21.6379 16.7688 21.67 16.9404 21.6571C17.112 21.6441 17.2773 21.5867 17.42 21.4903L20.5488 18.8291Z" stroke="white" stroke-width="2" stroke-linecap="round" stroke-linejoin="round"/>
</g>
<defs>
<clipPath id="clip0_15_68">
<rect width="32" height="32" fill="white" transform="translate(0 0.661621)"/>
</clipPath>
</defs>
</svg>
